<svg id="Layer_1" xmlns="http://www.w3.org/2000/svg" viewBox="0 0 800 500"><style>.st0{enable-background:new ;} .st1{fill:#979797;} .st2{fill:#DADFE2;} .st3{fill:none;stroke:#414141;stroke-width:4;stroke-linecap:round;stroke-linejoin:round;} .st4{fill:none;stroke:#414141;stroke-width:4;stroke-linecap:round;stroke-linejoin:round;stroke-dasharray:4.8959,7.8334;} .st5{fill:none;stroke:#414141;stroke-width:4;stroke-linecap:round;stroke-linejoin:round;stroke-dasharray:4.8775,7.804;} .st6{fill:none;stroke:#414141;stroke-width:4;stroke-linecap:round;stroke-linejoin:round;stroke-dasharray:4.816,7.7056;} .st7{fill:none;stroke:#414141;stroke-width:4;stroke-linecap:round;stroke-linejoin:round;stroke-dasharray:5.0507,8.081;} .st8{opacity:0.2;fill:#414141;enable-background:new ;} .st9{fill:#FFFFFF;} .st10{fill:#FC8363;} .st11{fill:#FFFFFF;stroke:#414141;stroke-width:4;stroke-linejoin:round;stroke-miterlimit:10;} .st12{fill:#FBBA1B;stroke:#414141;stroke-width:4;stroke-linecap:round;stroke-linejoin:round;stroke-miterlimit:10;} .st13{fill:#FFFFFF;stroke:#414141;stroke-width:4;stroke-linecap:round;stroke-linejoin:round;stroke-miterlimit:10;} .st14{fill:none;stroke:#414141;stroke-width:4;stroke-linecap:round;stroke-linejoin:round;stroke-miterlimit:10;} .st15{fill:none;stroke:#404040;stroke-width:4;stroke-linecap:round;stroke-linejoin:round;stroke-miterlimit:10;} .st16{fill:#FC8363;stroke:#404040;stroke-width:4;stroke-linecap:round;stroke-linejoin:round;} .st17{opacity:0.2;fill:#205081;enable-background:new ;} .st18{fill:none;stroke:#404040;stroke-width:4;stroke-linecap:round;stroke-linejoin:round;} .st19{fill:#FFFFFF;stroke:#404040;stroke-width:4;stroke-linecap:round;stroke-linejoin:round;} .st20{fill:#404040;} .st21{fill:#DADFE2;stroke:#414141;stroke-width:3.5258;stroke-linecap:round;stroke-linejoin:round;stroke-miterlimit:10;} .st22{fill:#FFFFFF;stroke:#414141;stroke-width:3.4513;stroke-linecap:round;stroke-linejoin:round;stroke-miterlimit:10;} .st23{fill:#A58BC0;stroke:#414141;stroke-width:4;stroke-linecap:round;stroke-linejoin:round;stroke-miterlimit:10;}</style><g id="Layer_1_1_"><g class="st0"><path class="st1" d="M367.9,30.1c0.1,1.3,1.2,2.4,2.6,2.4c2,0,2.9-1,2.9-3.1V28c-0.5,0.9-1.5,1.6-2.9,1.6c-2.6,0-4.4-1.9-4.4-4.7 c0-2.6,1.8-4.7,4.4-4.7c1.5,0,2.5,0.6,3,1.5v-1.3h1.9v8.9c0,2.4-1.2,4.8-4.8,4.8c-2.4,0-4.2-1.5-4.4-3.6L367.9,30.1z M373.5,24.9 c0-1.9-1.1-3.1-2.7-3.1c-1.7,0-2.8,1.2-2.8,3.1c0,1.9,1.1,3.1,2.8,3.1C372.4,28,373.5,26.7,373.5,24.9z"/><path class="st1" d="M380.2,15.4c0.8,0,1.4,0.6,1.4,1.4c0,0.7-0.6,1.3-1.4,1.3c-0.7,0-1.3-0.6-1.3-1.3 C378.9,16,379.5,15.4,380.2,15.4z M379.3,30v-9.6h1.9V30H379.3z"/><path class="st1" d="M387.9,20.4h2.1v1.7h-2.1v5c0,0.9,0.4,1.3,1.3,1.3c0.2,0,0.6,0,0.7-0.1v1.6c-0.2,0.1-0.6,0.2-1.3,0.2 c-1.6,0-2.7-1-2.7-2.7v-5.3h-1.8v-1.7h0.5c1,0,1.5-0.6,1.5-1.5v-1.6h1.7V20.4z"/><path class="st1" d="M401.8,24.5l2.6-0.4c0.6-0.1,0.7-0.4,0.7-0.7c0-0.9-0.6-1.7-2.1-1.7c-1.3,0-2.1,0.8-2.2,1.9l-1.8-0.4 c0.2-1.8,1.9-3.1,3.9-3.1c2.9,0,4,1.6,4,3.5v4.8c0,0.8,0.1,1.3,0.1,1.6h-1.8c0-0.2-0.1-0.6-0.1-1.3c-0.4,0.7-1.4,1.6-3.1,1.6 c-2,0-3.2-1.4-3.2-2.9C398.9,25.7,400.1,24.7,401.8,24.5z M405.1,25.9v-0.4l-2.9,0.4c-0.8,0.1-1.4,0.6-1.4,1.4 c0,0.7,0.6,1.4,1.6,1.4C403.9,28.7,405.1,28,405.1,25.9z"/><path class="st1" d="M417.7,28.5c-0.5,0.9-1.5,1.7-3,1.7c-2.8,0-4.6-2.2-4.6-5.1c0-2.7,1.8-5,4.6-5c1.7,0,2.6,0.8,2.9,1.6v-6.2 h1.9v12.7c0,0.9,0.1,1.6,0.1,1.8h-1.8c0-0.2-0.1-0.7-0.1-1.3V28.5z M414.9,28.6c1.7,0,2.8-1.5,2.8-3.5s-1-3.3-2.8-3.3 s-2.8,1.4-2.8,3.4S413.1,28.6,414.9,28.6z"/><path class="st1" d="M430.4,28.5c-0.5,0.9-1.5,1.7-3,1.7c-2.8,0-4.6-2.2-4.6-5.1c0-2.7,1.8-5,4.6-5c1.7,0,2.6,0.8,2.9,1.6v-6.2 h1.9v12.7c0,0.9,0.1,1.6,0.1,1.8h-1.8c0-0.2-0.1-0.7-0.1-1.3V28.5z M427.6,28.6c1.7,0,2.8-1.5,2.8-3.5s-1-3.3-2.8-3.3 c-1.7,0-2.8,1.4-2.8,3.4S425.8,28.6,427.6,28.6z"/></g><path class="st2" d="M171.5 274.4L186.2 256.3 186.2 210.6 46.1 210.6 46.1 362.9 171.5 362.9z"/><path class="st3" d="M186.2 213.1L186.2 210.6 183.7 210.6"/><path class="st4" d="M175.9 210.6L52.5 210.6"/><path class="st3" d="M48.6 210.6L46.1 210.6 46.1 213.1"/><path class="st5" d="M46.1 220.9L46.1 356.5"/><path class="st3" d="M46.1 360.4L46.1 362.9 48.6 362.9"/><path class="st6" d="M56.3 362.9L165.1 362.9"/><path class="st3" d="M169 362.9L171.5 362.9 171.5 360.4"/><path class="st7" d="M171.5 352.3L171.5 274.4 186.2 256.3 186.2 217.1"/><path class="st8" d="M172.5 218.6H178.2V250.1H172.5z"/><path class="st2" d="M739.2 157.4L753.9 139.3 753.9 93.6 613.8 93.6 613.8 245.9 739.2 245.9z"/><path class="st3" d="M753.9 96.1L753.9 93.6 751.4 93.6"/><path class="st4" d="M743.6 93.6L620.2 93.6"/><path class="st3" d="M616.3 93.6L613.8 93.6 613.8 96.1"/><path class="st5" d="M613.8 103.9L613.8 239.5"/><path class="st3" d="M613.8 243.4L613.8 245.9 616.3 245.9"/><path class="st6" d="M624 245.9L732.8 245.9"/><path class="st3" d="M736.7 245.9L739.2 245.9 739.2 243.4"/><path class="st7" d="M739.2 235.3L739.2 157.4 753.9 139.3 753.9 100.2"/><path class="st2" d="M739.2 371.4L753.9 353.3 753.9 307.6 613.8 307.6 613.8 459.9 739.2 459.9z"/><path class="st3" d="M753.9 310.1L753.9 307.6 751.4 307.6"/><path class="st4" d="M743.6 307.6L620.2 307.6"/><path class="st3" d="M616.3 307.6L613.8 307.6 613.8 310.1"/><path class="st5" d="M613.8 317.9L613.8 453.5"/><path class="st3" d="M613.8 457.4L613.8 459.9 616.3 459.9"/><path class="st6" d="M624 459.9L732.8 459.9"/><path class="st3" d="M736.7 459.9L739.2 459.9 739.2 457.4"/><path class="st7" d="M739.2 449.3L739.2 371.4 753.9 353.3 753.9 314.2"/><path class="st9" d="M743.6,322.9l-10.4-5.1c-0.3-0.2-0.7-0.2-1,0l-10.4,5.1c-0.2,0.1-0.3,0.3-0.3,0.5v8.6 c0,0.2,0.1,0.4,0.3,0.5l10.4,5.1c0.3,0.2,0.7,0.2,1,0l10.4-5.1c0.2-0.1,0.3-0.3,0.3-0.5v-8.6C743.9,323.2,743.8,323,743.6,322.9 z"/><path class="st10" d="M743.6,322.9l-3.4-1.7c-0.1,0-0.2,0-0.2,0l-10.8,5.3c-0.2,0.1-0.3,0.3-0.3,0.5v3.9c0,0.2-0.2,0.3-0.4,0.2 l-3-1.5c-0.1,0-0.2-0.1-0.2-0.2v-4.1c0-0.2,0.1-0.4,0.3-0.5l10.6-5.2c0.1-0.1,0.1-0.2,0-0.2l-3.1-1.5c-0.3-0.2-0.7-0.2-1,0 l-10.4,5.1c-0.2,0.1-0.3,0.3-0.3,0.5v8.6c0,0.2,0.1,0.4,0.3,0.5l10.4,5.1c0.3,0.2,0.7,0.2,1,0l10.4-5.1c0.2-0.1,0.3-0.3,0.3-0.5 v-8.6C743.9,323.2,743.8,323,743.6,322.9z"/><path class="st11" d="M682.9,113.6v35.1h36.3v77.2h-85.4V113.6H682.9"/><path class="st12" d="M682.9,113.6l36.3,35.2l-36.3-0.1V113.6z"/><path class="st13" d="M656,166.8c-2.3,1.9-8.2,5.1-8.2,14.1s7.3,16.4,16.4,16.4h12.3c2.3,0,4.1-1.8,4.1-4.1s-1.8-4.1-4.1-4.1 h2c2.3,0,4.1-1.8,4.1-4.1s-1.8-4.1-4.1-4.1h2c2.3,0,4.1-1.8,4.1-4.1s-1.8-4.1-4.1-4.1H701c2.3,0,4.1-1.8,4.1-4.1 s-1.8-4.1-4.1-4.1h-29.6l3.6-3c1.7-1.5,2-4,0.5-5.8c-1.5-1.7-4-2-5.8-0.5L656,166.8z"/><path class="st14" d="M680.6 172.7L676.5 172.7"/><path class="st14" d="M678.5 180.9L676.5 180.9"/><path class="st14" d="M676.5 189.1L674.4 189.1"/><path class="st13" d="M676.5,172.7h-4.8c-2.3,0-4.1,1.8-4.1,4.1s1.8,4.1,4.1,4.1h4.8"/><path class="st13" d="M674.4,180.9h-4.8c-2.3,0-4.1,1.8-4.1,4.1s1.8,4.1,4.1,4.1h4.8"/><path class="st13" d="M672,189.1h-4.8c-2.3,0-4.1,1.8-4.1,4.1s1.8,4.1,4.1,4.1h4.8"/><path class="st14" d="M672.8 163.4L669.2 166.4"/><path class="st15" d="M522,240.8c0,22.6-18.4,41-41,41 M522,240.8c0-22.6,18.4-41,41-41h7.8"/><path class="st15" d="M481,281.8c22.6,0,41,18.4,41,41 M570.8,363.8H563c-22.6,0-41-18.4-41-41"/><path class="st15" d="M562 188.9L572.8 199.8 562 210.7"/><path class="st15" d="M562 352.9L572.8 363.8 562 374.7"/><path class="st16" d="M312.6 255.3L312.6 308.3 376.3 339.7 440 308.3 440 255.3"/><path class="st17" d="M440 255.3L440 308.3 376.3 339.7 376.3 286.7z"/><path class="st18" d="M376.3 286.7L376.3 339.7"/><path class="st16" d="M440 255.3L376.3 286.7 354.4 275.9 418.1 244.5z"/><path class="st16" d="M398.2 234.7L334.5 266.1 312.6 255.3 376.3 223.9z"/><path class="st19" d="M418.1 244.5L354.4 275.9 354.4 302.4 334.4 292.5 334.4 266 398.1 234.6z"/><g class="st0"><path class="st20" d="M358.5,379.7l-0.1-1.5c-0.5,0.8-1.6,1.7-3.4,1.7c-2.7,0-5.2-1.9-5.2-5.6c0-3.6,2.6-5.5,5.3-5.5 c2.3,0,4.1,1.3,4.7,3.2l-1.3,0.6c-0.5-1.5-1.7-2.4-3.4-2.4c-1.9,0-3.8,1.4-3.8,4.2c0,2.8,1.8,4.2,3.7,4.2 c2.4,0,3.2-1.7,3.3-2.8h-3.7v-1.3h5.1v5.2H358.5z"/><path class="st20" d="M362.5,368.7c0.6,0,1,0.4,1,1c0,0.6-0.4,1-1,1c-0.6,0-1-0.5-1-1C361.5,369.2,362,368.7,362.5,368.7z M361.8,379.7v-7.2h1.4v7.2H361.8z"/><path class="st20" d="M367.5,372.5h1.6v1.3h-1.6v3.8c0,0.7,0.3,1,1,1c0.2,0,0.4,0,0.6-0.1v1.2c-0.1,0-0.5,0.1-1,0.1 c-1.2,0-2-0.8-2-2.1v-4h-1.4v-1.3h0.4c0.8,0,1.1-0.5,1.1-1.1v-1.2h1.3V372.5z"/><path class="st20" d="M374.8,379.7v-10.6h1.5v9.3h5v1.4H374.8z"/><path class="st20" d="M383.1,379.7v-10.6h6.5v1.4h-5v3.4h4.5v1.4h-4.5v4.5H383.1z"/><path class="st20" d="M396.8,371.9c-0.1-0.8-0.8-1.8-2.2-1.8c-1.2,0-2.1,0.8-2.1,1.8c0,0.8,0.5,1.3,1.4,1.5l1.6,0.3 c1.8,0.4,2.8,1.5,2.8,3c0,1.7-1.4,3.2-3.7,3.2c-2.6,0-3.8-1.7-4-3.2l1.4-0.5c0.1,1.2,0.9,2.3,2.5,2.3c1.5,0,2.2-0.8,2.2-1.7 c0-0.8-0.5-1.4-1.6-1.7l-1.5-0.3c-1.5-0.3-2.6-1.3-2.6-2.9c0-1.7,1.5-3.2,3.5-3.2c2.4,0,3.4,1.5,3.6,2.6L396.8,371.9z"/></g><path class="st21" d="M331.2,313.4l-2.1-0.5c-0.5-0.1-0.9-0.5-1.1-0.9v-0.1c-0.2-0.5-0.2-1,0.1-1.5l1.1-1.8 c0.4-0.7,0.3-1.6-0.3-2.2l-4.4-4.4c-0.6-0.6-1.5-0.7-2.2-0.3l-1.8,1.1c-0.5,0.3-1,0.3-1.5,0.1l0,0c-0.5-0.2-0.9-0.6-1-1.1 l-0.5-2.1c-0.2-0.8-0.9-1.4-1.7-1.4h-6.2c-0.8,0-1.6,0.6-1.7,1.4l-0.5,2.1c-0.1,0.5-0.5,0.9-0.9,1.1h-0.1c-0.5,0.2-1,0.2-1.5-0.1 l-1.8-1.1c-0.7-0.4-1.6-0.3-2.2,0.3l-4.4,4.4c-0.6,0.6-0.7,1.5-0.3,2.2l1.1,1.8c0.3,0.5,0.3,1,0.1,1.5l0,0 c-0.2,0.5-0.6,0.9-1.1,1l-2.1,0.5c-0.8,0.2-1.4,0.9-1.4,1.7v6.2c0,0.8,0.6,1.6,1.4,1.7l2.1,0.5c0.5,0.1,0.9,0.5,1.1,0.9v0.1 c0.2,0.5,0.2,1-0.1,1.5l-1.1,1.8c-0.4,0.7-0.3,1.6,0.3,2.2l4.4,4.4c0.6,0.6,1.5,0.7,2.2,0.3l1.8-1.1c0.5-0.3,1-0.3,1.5-0.1l0,0 c0.5,0.2,0.9,0.6,1,1.1l0.5,2.1c0.2,0.8,0.9,1.4,1.7,1.4h6.2c0.8,0,1.6-0.6,1.7-1.4l0.5-2.1c0.1-0.5,0.5-0.9,0.9-1.1h0.1 c0.5-0.2,1-0.2,1.5,0.1l1.8,1.1c0.7,0.4,1.6,0.3,2.2-0.3l4.4-4.4c0.6-0.6,0.7-1.5,0.3-2.2l-1.1-1.8c-0.3-0.5-0.3-1-0.1-1.5l0,0 c0.2-0.5,0.6-0.9,1.1-1l2.1-0.5c0.8-0.2,1.4-0.9,1.4-1.7v-6.2C332.6,314.3,332,313.6,331.2,313.4z M312.6,325.4 c-3.9,0-7.1-3.2-7.1-7.1s3.2-7.1,7.1-7.1s7.1,3.2,7.1,7.1C319.7,322.2,316.6,325.4,312.6,325.4z"/><circle class="st22" cx="312.6" cy="318.3" r="7.1"/><path class="st15" d="M269.7 281.8L226.2 281.8"/><path class="st15" d="M261 270.9L271.8 281.8 261 292.7"/><path class="st9" d="M743.5,113.1l-9.1-9.1c-0.5-0.5-1.4-0.5-1.9,0l0,0l-9.1,9.1c-0.5,0.5-0.5,1.4,0,1.9l0,0l9.1,9.1 c0.5,0.5,1.4,0.5,1.9,0l0,0l9.1-9.1C744,114.5,744,113.6,743.5,113.1L743.5,113.1z"/><path class="st10" d="M743.5,113.1l-9.1-9.1c-0.5-0.5-1.4-0.5-1.9,0l0,0l-1.9,1.9l2.4,2.4c0.8-0.3,1.7,0.2,2,1 c0.1,0.3,0.1,0.7,0,1l2.3,2.3c0.8-0.3,1.7,0.2,2,1s-0.2,1.7-1,2s-1.7-0.2-2-1c-0.1-0.4-0.1-0.8,0-1.1l-2.2-2.2v5.7 c0.8,0.4,1.1,1.4,0.7,2.1c-0.4,0.8-1.4,1.1-2.1,0.7s-1.1-1.4-0.7-2.1c0.2-0.4,0.5-0.6,0.8-0.8v-5.7c-0.2-0.1-0.4-0.2-0.5-0.3 c-0.5-0.5-0.6-1.2-0.3-1.7l-2.4-2.4l-6.2,6.2c-0.5,0.5-0.5,1.4,0,1.9l0,0l9.1,9.1c0.5,0.5,1.4,0.5,1.9,0l0,0l9.1-9.1 C744,114.5,744,113.6,743.5,113.1L743.5,113.1z"/><g class="st0"><path class="st20" d="M67,382.2h1.5l-3,10.6H64l-2.8-8.6l-2.7,8.6H57l-3.1-10.6h1.5l2.3,8.3l2.7-8.3H62l2.7,8.4L67,382.2z"/><path class="st20" d="M76.2,389.2c0,2.2-1.5,3.8-3.7,3.8c-2.2,0-3.7-1.6-3.7-3.8c0-2.2,1.5-3.8,3.7-3.8 C74.7,385.4,76.2,387,76.2,389.2z M74.8,389.2c0-1.7-1-2.6-2.2-2.6c-1.2,0-2.2,0.9-2.2,2.6c0,1.7,1,2.6,2.2,2.6 C73.7,391.8,74.8,390.9,74.8,389.2z"/><path class="st20" d="M82,387c-0.2,0-0.4,0-0.6,0c-1.2,0-2,0.6-2,2.2v3.6H78v-7.2h1.4v1.3c0.5-1.1,1.4-1.4,2.2-1.4 c0.2,0,0.4,0,0.5,0V387z"/><path class="st20" d="M86.9,388.7l3.1,4.2h-1.8l-2.4-3.2l-1,1v2.2h-1.4V382h1.4v6.8l3.1-3.2H90L86.9,388.7z"/><path class="st20" d="M92.1,381.9c0.6,0,1,0.5,1,1c0,0.6-0.4,1-1,1c-0.6,0-1-0.5-1-1C91.1,382.3,91.5,381.9,92.1,381.9z M91.4,392.8v-7.2h1.4v7.2H91.4z"/><path class="st20" d="M96.6,392.8h-1.4v-7.2h1.4v1c0.5-0.9,1.4-1.2,2.2-1.2c1.7,0,2.6,1.2,2.6,2.8v4.6h-1.4v-4.3 c0-1-0.4-1.8-1.7-1.8c-1.1,0-1.7,0.9-1.7,2V392.8z"/><path class="st20" d="M104.4,392.9c0.1,1,0.9,1.8,2,1.8c1.5,0,2.2-0.8,2.2-2.3v-1c-0.3,0.7-1.1,1.2-2.2,1.2 c-1.9,0-3.3-1.5-3.3-3.5c0-2,1.3-3.5,3.3-3.5c1.1,0,1.9,0.4,2.2,1.1v-1h1.4v6.7c0,1.8-0.9,3.6-3.6,3.6c-1.8,0-3.1-1.1-3.3-2.7 L104.4,392.9z M108.7,389c0-1.4-0.8-2.3-2.1-2.3c-1.2,0-2.1,0.9-2.1,2.3c0,1.4,0.8,2.3,2.1,2.3 C107.8,391.3,108.7,390.4,108.7,389z"/><path class="st20" d="M116.9,389.2c0,1.7,1,2.5,2.2,2.5c1.4,0,1.8-0.9,2-1.5l1.2,0.5c-0.3,1-1.4,2.2-3.3,2.2 c-2.1,0-3.6-1.6-3.6-3.8c0-2.2,1.6-3.8,3.6-3.8c1.9,0,2.9,1.2,3.2,2.3l-1.3,0.5c-0.2-0.7-0.7-1.5-1.9-1.5 C117.9,386.7,116.9,387.5,116.9,389.2z"/><path class="st20" d="M130.7,389.2c0,2.2-1.5,3.8-3.7,3.8c-2.2,0-3.7-1.6-3.7-3.8c0-2.2,1.5-3.8,3.7-3.8 C129.2,385.4,130.7,387,130.7,389.2z M129.2,389.2c0-1.7-1-2.6-2.2-2.6c-1.2,0-2.2,0.9-2.2,2.6c0,1.7,1,2.6,2.2,2.6 C128.2,391.8,129.2,390.9,129.2,389.2z"/><path class="st20" d="M132.5,395.7v-10.1h1.4v1.1c0.4-0.7,1.2-1.3,2.4-1.3c2.2,0,3.3,1.7,3.3,3.8c0,2.1-1.2,3.8-3.4,3.8 c-1.1,0-1.9-0.5-2.3-1.2v3.8H132.5z M136,386.7c-1.3,0-2.1,1.1-2.1,2.5c0,1.5,0.9,2.5,2.1,2.5c1.3,0,2.1-1.1,2.1-2.5 C138.1,387.8,137.3,386.7,136,386.7z"/><path class="st20" d="M141.3,395.8l1.8-3.8l-3.1-6.4h1.6l2.2,5l2.2-5h1.5l-4.7,10.2H141.3z"/></g><g class="st0"><path class="st20" d="M657.5,275.9l-0.1-1.5c-0.5,0.8-1.6,1.7-3.4,1.7c-2.7,0-5.2-1.9-5.2-5.5c0-3.6,2.6-5.5,5.3-5.5 c2.3,0,4.1,1.3,4.7,3.2l-1.3,0.6c-0.5-1.5-1.7-2.4-3.4-2.4c-1.9,0-3.8,1.4-3.8,4.2c0,2.8,1.8,4.2,3.7,4.2c2.4,0,3.2-1.7,3.3-2.8 h-3.7v-1.3h5.1v5.2H657.5z"/><path class="st20" d="M661.5,265c0.6,0,1,0.5,1,1c0,0.6-0.5,1-1,1c-0.6,0-1-0.5-1-1C660.5,265.4,661,265,661.5,265z M660.8,275.9v-7.2h1.4v7.2H660.8z"/><path class="st20" d="M666.5,268.7h1.6v1.3h-1.6v3.8c0,0.7,0.3,1,1,1c0.2,0,0.4,0,0.6-0.1v1.2c-0.1,0-0.5,0.1-1,0.1 c-1.2,0-2-0.8-2-2.1v-4h-1.4v-1.3h0.4c0.8,0,1.1-0.5,1.1-1.1v-1.2h1.3V268.7z"/><path class="st20" d="M677.7,270.1c-0.2,0-0.4,0-0.6,0c-1.2,0-2,0.6-2,2.2v3.6h-1.4v-7.2h1.4v1.3c0.5-1.1,1.4-1.4,2.2-1.4 c0.2,0,0.4,0,0.5,0V270.1z"/><path class="st20" d="M685.4,273.9c-0.4,1.3-1.6,2.3-3.2,2.3c-1.9,0-3.6-1.4-3.6-3.9c0-2.3,1.6-3.8,3.5-3.8 c2.2,0,3.5,1.5,3.5,3.8c0,0.2,0,0.4,0,0.5H680c0,1.3,1,2.2,2.2,2.2c1.2,0,1.8-0.6,2-1.5L685.4,273.9z M684,271.6 c0-1-0.7-1.8-2-1.8c-1.2,0-1.9,0.9-2,1.8H684z"/><path class="st20" d="M687.3,278.8v-10.1h1.4v1.1c0.4-0.7,1.2-1.3,2.4-1.3c2.2,0,3.3,1.7,3.3,3.8c0,2.1-1.2,3.8-3.4,3.8 c-1.1,0-2-0.5-2.3-1.2v3.8H687.3z M690.8,269.8c-1.3,0-2.1,1.1-2.1,2.5c0,1.5,0.9,2.5,2.1,2.5c1.3,0,2.1-1.1,2.1-2.5 C692.9,270.9,692.1,269.8,690.8,269.8z"/><path class="st20" d="M703,272.3c0,2.2-1.5,3.8-3.7,3.8c-2.2,0-3.7-1.6-3.7-3.8c0-2.2,1.5-3.8,3.7-3.8 C701.4,268.5,703,270.1,703,272.3z M701.5,272.3c0-1.7-1-2.6-2.2-2.6s-2.2,0.9-2.2,2.6c0,1.7,1,2.6,2.2,2.6 S701.5,274,701.5,272.3z"/></g><g class="st0"><path class="st20" d="M636.5,489.9l-0.1-1.5c-0.5,0.8-1.6,1.7-3.4,1.7c-2.7,0-5.2-1.9-5.2-5.5c0-3.6,2.6-5.5,5.3-5.5 c2.3,0,4.1,1.3,4.7,3.2l-1.3,0.6c-0.5-1.5-1.7-2.4-3.4-2.4c-1.9,0-3.8,1.4-3.8,4.2c0,2.8,1.8,4.2,3.7,4.2c2.4,0,3.2-1.7,3.3-2.8 h-3.7v-1.3h5.1v5.2H636.5z"/><path class="st20" d="M640.5,479c0.6,0,1,0.5,1,1c0,0.6-0.5,1-1,1c-0.6,0-1-0.5-1-1C639.5,479.4,639.9,479,640.5,479z M639.8,489.9v-7.2h1.4v7.2H639.8z"/><path class="st20" d="M645.5,482.7h1.6v1.3h-1.6v3.8c0,0.7,0.3,1,1,1c0.2,0,0.4,0,0.6-0.1v1.2c-0.1,0-0.5,0.1-1,0.1 c-1.2,0-2-0.8-2-2.1v-4h-1.4v-1.3h0.4c0.8,0,1.1-0.5,1.1-1.1v-1.2h1.3V482.7z"/><path class="st20" d="M652.8,489.9v-10.6h1.5v9.3h5v1.4H652.8z"/><path class="st20" d="M661,489.9v-10.6h6.5v1.4h-5v3.4h4.5v1.4h-4.5v4.5H661z"/><path class="st20" d="M674.8,482.2c-0.1-0.8-0.8-1.8-2.2-1.8c-1.2,0-2.1,0.8-2.1,1.8c0,0.8,0.5,1.3,1.4,1.5l1.6,0.3 c1.8,0.4,2.8,1.5,2.8,3c0,1.6-1.4,3.1-3.7,3.1c-2.6,0-3.8-1.6-4-3.2l1.4-0.5c0.1,1.2,0.9,2.3,2.6,2.3c1.5,0,2.2-0.8,2.2-1.7 c0-0.8-0.5-1.4-1.6-1.7l-1.5-0.3c-1.5-0.3-2.6-1.3-2.6-2.9c0-1.7,1.5-3.2,3.5-3.2c2.4,0,3.4,1.5,3.6,2.6L674.8,482.2z"/><path class="st20" d="M682.6,486.3c0,1.7,1,2.5,2.2,2.5c1.3,0,1.8-0.9,2-1.5l1.2,0.5c-0.3,1-1.4,2.2-3.3,2.2 c-2.1,0-3.6-1.6-3.6-3.8c0-2.2,1.6-3.8,3.6-3.8c1.9,0,2.9,1.2,3.2,2.3l-1.3,0.5c-0.2-0.7-0.7-1.5-1.9-1.5 C683.7,483.8,682.6,484.6,682.6,486.3z"/><path class="st20" d="M691.4,485.8l1.9-0.3c0.4-0.1,0.6-0.3,0.6-0.5c0-0.7-0.5-1.3-1.6-1.3c-1,0-1.5,0.6-1.6,1.5l-1.4-0.3 c0.1-1.4,1.4-2.3,3-2.3c2.2,0,3,1.2,3,2.6v3.6c0,0.6,0.1,1,0.1,1.2H694c0-0.2-0.1-0.5-0.1-1c-0.3,0.5-1,1.2-2.3,1.2 c-1.5,0-2.4-1-2.4-2.2C689.2,486.7,690.2,486,691.4,485.8z M693.9,486.8v-0.3l-2.2,0.3c-0.6,0.1-1,0.4-1,1.1c0,0.5,0.4,1,1.2,1 C693,489,693.9,488.4,693.9,486.8z"/><path class="st20" d="M698.4,486.3c0,1.7,1,2.5,2.2,2.5c1.4,0,1.8-0.9,2-1.5l1.2,0.5c-0.3,1-1.4,2.2-3.3,2.2 c-2.1,0-3.6-1.6-3.6-3.8c0-2.2,1.6-3.8,3.6-3.8c1.9,0,2.9,1.2,3.2,2.3l-1.3,0.5c-0.2-0.7-0.7-1.5-1.9-1.5 C699.4,483.8,698.4,484.6,698.4,486.3z"/><path class="st20" d="M706.9,489.9h-1.4v-10.9h1.4v4.5c0.5-0.8,1.4-1,2.2-1c1.7,0,2.6,1.2,2.6,2.8v4.6h-1.4v-4.3 c0-1-0.4-1.8-1.7-1.8c-1.1,0-1.7,0.8-1.7,1.9V489.9z"/><path class="st20" d="M720.2,487.9c-0.4,1.3-1.6,2.3-3.2,2.3c-1.9,0-3.6-1.4-3.6-3.9c0-2.3,1.6-3.8,3.5-3.8 c2.2,0,3.5,1.5,3.5,3.8c0,0.2,0,0.4,0,0.5h-5.4c0,1.3,1,2.2,2.2,2.2c1.2,0,1.8-0.6,2-1.5L720.2,487.9z M718.8,485.6 c0-1-0.7-1.8-2-1.8c-1.2,0-1.9,0.9-2,1.8H718.8z"/></g><g><path class="st11" d="M115.2,230.6v35.1h36.3v77.2H66.1V230.6H115.2"/><path class="st23" d="M115.2,230.6l36.3,35.2l-36.3-0.1V230.6z"/><path class="st14" d="M77.1 251.9L77.1 263.8"/><ellipse class="st14" cx="93.7" cy="257.8" rx="4.5" ry="6"/><path class="st14" d="M83.2 251.9L83.2 263.8"/><path class="st14" d="M104.2 251.9L104.2 263.8"/><path class="st14" d="M119.1 285.9L119.1 274.1"/><ellipse class="st14" cx="87.6" cy="279.7" rx="4.5" ry="6"/><path class="st14" d="M98.1 285.6L98.1 273.8"/><path class="st14" d="M77.1 285.6L77.1 273.8"/><ellipse class="st14" cx="108.6" cy="279.7" rx="4.5" ry="6"/><path class="st14" d="M125.2 274.1L125.2 285.9"/><ellipse class="st14" cx="135.9" cy="279.7" rx="4.5" ry="6"/><path class="st14" d="M113.1 330L113.1 318.1"/><ellipse class="st14" cx="87.6" cy="323.8" rx="4.5" ry="6"/><path class="st14" d="M77.1 329.6L77.1 317.8"/><ellipse class="st14" cx="102.6" cy="323.8" rx="4.5" ry="6"/><path class="st14" d="M119.2 318.1L119.2 330"/><path class="st14" d="M119.2 318.1L119.2 330"/><ellipse class="st14" cx="129.7" cy="323.8" rx="4.5" ry="6"/><path class="st14" d="M98.4 295.9L98.4 307.7"/><ellipse class="st14" cx="130" cy="302.1" rx="4.5" ry="6"/><path class="st14" d="M119.4 296.2L119.4 308"/><path class="st14" d="M140.4 296.2L140.4 308"/><ellipse class="st14" cx="109" cy="302.1" rx="4.5" ry="6"/><path class="st14" d="M92.2 307.7L92.2 295.9"/><ellipse class="st14" cx="81.6" cy="302.1" rx="4.5" ry="6"/><path class="st14" d="M140.4 329.6L140.4 317.8"/></g><g><path class="st11" d="M682.9,327.6v35.1h36.3v77.2h-85.4V327.6H682.9"/><path class="st23" d="M682.9,327.6l36.3,35.2l-36.3-0.1V327.6z"/><path class="st14" d="M644.8 349L644.8 360.8"/><ellipse class="st14" cx="661.4" cy="354.8" rx="4.5" ry="6"/><path class="st14" d="M650.9 349L650.9 360.8"/><path class="st14" d="M671.9 349L671.9 360.8"/><path class="st14" d="M686.8 382.9L686.8 371.1"/><ellipse class="st14" cx="655.2" cy="376.8" rx="4.5" ry="6"/><path class="st14" d="M665.8 382.6L665.8 370.8"/><path class="st14" d="M644.8 382.6L644.8 370.8"/><ellipse class="st14" cx="676.2" cy="376.8" rx="4.5" ry="6"/><path class="st14" d="M692.9 371.1L692.9 382.9"/><ellipse class="st14" cx="703.6" cy="376.8" rx="4.5" ry="6"/><path class="st14" d="M680.8 427L680.8 415.1"/><ellipse class="st14" cx="655.2" cy="420.8" rx="4.5" ry="6"/><path class="st14" d="M644.8 426.7L644.8 414.8"/><ellipse class="st14" cx="670.2" cy="420.8" rx="4.5" ry="6"/><path class="st14" d="M686.9 415.1L686.9 427"/><path class="st14" d="M686.9 415.1L686.9 427"/><ellipse class="st14" cx="697.4" cy="420.8" rx="4.5" ry="6"/><path class="st14" d="M666.1 392.9L666.1 404.8"/><ellipse class="st14" cx="697.7" cy="399.1" rx="4.5" ry="6"/><path class="st14" d="M687.1 393.2L687.1 405.1"/><path class="st14" d="M708.1 393.2L708.1 405.1"/><ellipse class="st14" cx="676.7" cy="399.1" rx="4.5" ry="6"/><path class="st14" d="M659.8 404.8L659.8 392.9"/><ellipse class="st14" cx="649.3" cy="399.1" rx="4.5" ry="6"/><path class="st14" d="M708.1 426.7L708.1 414.8"/></g></g></svg>